PathFileType	4	(X/Y/Z)	C:\Users\dbl\Desktop\LZH\BX\Trimmed_bx_y_0_1801.trc
DataRate	CameraRate	NumFrames	NumMarkers	Units	OrigDataRate	OrigDataStartFrame	OrigNumFrames
50.00	50.00	      7	43	mm	50.00	1	      1475
Frame#	Time	Top.Head			R.Acromium			L.Acromium			Sternum			R.ASIS			L.ASIS			V.Sacral			R.Thigh.Upper			R.Thigh.Front			R.Thigh.Rear			R.Knee.Lat			R.Knee.Med			R.Shank.Upper			R.Shank.Front			R.Shank.Rear			R.Ankle.Lat			R.Midfoot.Lat			R.Toe.Lat			R.Toe.Tip			R.Toe.Med			R.Ankle.Med			R.Midfoot.Sup			R.Heel			L.Thigh.Upper			L.Thigh.Front			L.Thigh.Rear			L.Knee.Lat			L.Knee.Med			L.Shank.Upper			L.Shank.Front			L.Shank.Rear			L.Ankle.Lat			L.Midfoot.Lat			L.Toe.Lat			L.Toe.Tip			L.Toe.Med			L.Ankle.Med			L.Midfoot.Sup			L.Heel			origin1 front left			origin2 front right			origin 3 back right			origin 4 back leftt			
		X1	Y1	Z1	X2	Y2	Z2	X3	Y3	Z3	X4	Y4	Z4	X5	Y5	Z5	X6	Y6	Z6	X7	Y7	Z7	X8	Y8	Z8	X9	Y9	Z9	X10	Y10	Z10	X11	Y11	Z11	X12	Y12	Z12	X13	Y13	Z13	X14	Y14	Z14	X15	Y15	Z15	X16	Y16	Z16	X17	Y17	Z17	X18	Y18	Z18	X19	Y19	Z19	X20	Y20	Z20	X21	Y21	Z21	X22	Y22	Z22	X23	Y23	Z23	X24	Y24	Z24	X25	Y25	Z25	X26	Y26	Z26	X27	Y27	Z27	X28	Y28	Z28	X29	Y29	Z29	X30	Y30	Z30	X31	Y31	Z31	X32	Y32	Z32	X33	Y33	Z33	X34	Y34	Z34	X35	Y35	Z35	X36	Y36	Z36	X37	Y37	Z37	X38	Y38	Z38	X39	Y39	Z39	X40	Y40	Z40	X41	Y41	Z41	X42	Y42	Z42	X43	Y43	Z43	

1	0.000	-667.16193	262.72888	1840.54700	-650.96155	56.13207	1531.87402	-644.22485	452.91321	1509.35596	-552.62347	258.22247	1398.75476	-538.90057	143.53343	1058.38892	-531.30933	382.32388	1062.88477	-731.71136	244.61766	1041.39087	-570.00183	91.03794	891.82690	-527.15656	146.67419	838.94696	-614.76038	89.12831	745.71790	-648.67932	122.01920	600.14178	-629.42346	229.27631	559.24939	-682.37610	121.56779	540.73572	-598.72308	169.28908	542.72424	-720.73022	125.10726	473.71487	-686.34662	146.25409	214.94435	-615.85547	78.38934	169.04474	-571.04480	52.83422	162.67390	-491.70859	92.84518	160.80396	-531.17267	145.06393	164.37938	-631.75305	219.50005	220.27443	-591.11340	190.88647	167.84908	-716.41461	215.13110	170.18599	-559.43884	429.37338	885.29755	-512.40179	368.14633	839.44482	-601.99158	430.01465	749.31024	-646.38226	410.72467	624.98096	-606.31476	309.32758	572.89996	-655.65424	409.33154	562.58929	-600.03619	368.36523	537.17499	-705.23895	412.69586	510.00064	-677.99280	413.02396	212.18709	-585.24316	467.05560	166.41693	-547.08636	479.26797	160.67923	-487.67416	429.12296	168.37105	-524.17401	386.97128	176.81421	-642.58795	325.30920	206.01923	-593.12201	346.46686	168.25302	-731.91736	342.44824	164.28458	-443.68542	448.21790	147.98680	-449.96136	75.95339	143.94958	-806.40485	82.59991	142.60455	-799.66821	456.88669	146.35587	
2	0.020	-667.66138	262.83209	1840.56152	-651.21381	56.18979	1531.87317	-644.62256	452.99207	1509.34473	-552.83673	258.36569	1398.85352	-539.16882	143.48511	1058.45288	-531.48273	382.28357	1062.84058	-731.77997	244.68463	1041.40051	-569.97595	91.09034	891.94165	-526.59467	147.20091	839.55133	-614.74963	89.57089	745.74731	-648.70074	121.94251	600.05872	-629.42963	229.27788	559.23730	-682.32037	121.51163	540.69849	-598.69183	169.20183	542.83063	-720.77228	125.02547	473.71448	-686.36279	146.29689	214.92050	-615.88782	78.43279	168.96997	-571.01282	52.78986	162.76813	-491.71368	92.82978	160.82248	-531.14783	144.97481	164.42560	-631.74060	219.49632	220.24422	-591.13855	190.96014	167.73587	-716.40332	215.09941	170.18895	-559.51569	429.39355	885.35657	-512.45685	368.23694	839.52136	-602.01984	430.03955	749.34021	-646.38281	410.68655	624.92841	-606.29547	309.40732	572.91217	-655.62659	409.37167	562.61285	-600.06708	368.33810	537.16669	-705.23572	412.71631	510.00595	-677.92932	413.05917	212.26659	-585.23920	467.09253	166.39433	-547.07770	479.26199	160.69342	-487.67953	429.12567	168.41287	-524.17633	386.93881	176.95178	-642.39392	325.09845	206.24568	-593.24658	346.37720	168.16962	-731.90259	342.45276	164.34082	-443.68997	448.20419	147.98662	-449.99109	75.92886	143.93353	-806.32629	82.58627	142.63914	-799.69891	456.87711	146.34451	
3	0.040	-668.16650	262.92584	1840.57727	-651.49030	56.24570	1531.87537	-645.00781	453.03427	1509.32922	-553.02521	258.47614	1398.94775	-539.41290	143.43188	1058.51208	-531.67749	382.25308	1062.81262	-731.85419	244.74983	1041.40576	-569.96045	91.17821	892.04602	-525.79431	147.90414	840.36206	-614.72327	89.96313	745.79700	-648.69189	121.86295	600.00684	-629.43567	229.27988	559.22491	-682.25146	121.45464	540.68195	-598.63782	169.09230	542.92029	-720.76245	124.94873	473.71692	-686.37659	146.33368	214.89389	-615.91187	78.46911	168.91411	-570.98480	52.75662	162.83987	-491.71555	92.81522	160.83902	-531.13025	144.90199	164.46677	-631.72949	219.49219	220.21179	-591.15485	191.01518	167.65114	-716.39282	215.07256	170.19528	-559.60034	429.40662	885.39966	-512.52161	368.31021	839.59094	-602.06140	430.06952	749.38080	-646.38452	410.64938	624.87848	-606.28583	309.46863	572.92151	-655.60315	409.40005	562.62653	-600.09393	368.31970	537.16589	-705.23419	412.72885	510.00604	-677.88843	413.08099	212.32330	-585.24011	467.11838	166.38139	-547.07043	479.25729	160.70508	-487.68008	429.12967	168.44928	-524.17926	386.90817	177.06419	-642.23737	324.93063	206.42331	-593.34167	346.30487	168.10468	-731.88611	342.45367	164.38196	-443.69354	448.19144	147.98921	-450.01245	75.91357	143.92363	-806.25531	82.57852	142.66917	-799.72205	456.86914	146.32071	
4	0.060	-668.68164	263.00580	1840.59436	-651.80261	56.29589	1531.88464	-645.37097	453.02438	1509.30908	-553.18054	258.53674	1399.03333	-539.61768	143.37308	1058.56506	-531.90210	382.24088	1062.81360	-731.93958	244.80984	1041.40186	-569.96851	91.32046	892.13574	-524.67297	148.83878	841.44238	-614.67145	90.27621	745.88031	-648.63782	121.77948	600.00531	-629.43866	229.28271	559.21484	-682.16083	121.39512	540.70154	-598.54462	168.94316	542.98248	-720.66693	124.88313	473.72754	-686.38556	146.35892	214.86516	-615.92413	78.49323	168.88794	-570.96490	52.73899	162.87743	-491.71326	92.80283	160.85172	-531.12506	144.85416	164.49843	-631.72284	219.48764	220.17809	-591.16083	191.04446	167.60638	-716.38434	215.05333	170.20308	-559.70605	429.40512	885.40973	-512.60254	368.35635	839.64862	-602.12317	430.10867	749.43707	-646.38959	410.61459	624.83514	-606.29187	309.50201	572.92383	-655.58655	409.41068	562.62811	-600.11377	368.31491	537.17639	-705.23578	412.72858	509.99878	-677.88000	413.08218	212.34506	-585.24854	467.12753	166.38145	-547.06531	479.25458	160.71280	-487.67365	429.13498	168.47813	-524.18555	386.88272	177.14009	-642.14282	324.83328	206.52019	-593.38971	346.26044	168.06831	-731.86865	342.44986	164.40086	-443.69550	448.18094	147.99640	-450.02145	75.91237	143.92264	-806.20056	82.58131	142.68752	-799.73444	456.86191	146.28349	
5	0.080	-669.20801	263.07532	1840.61047	-652.14606	56.33534	1531.90588	-645.70801	452.97604	1509.28723	-553.31635	258.55289	1399.10730	-539.78217	143.31209	1058.61670	-532.14911	382.25052	1062.84851	-732.04047	244.85854	1041.38391	-570.01508	91.51283	892.21478	-523.35767	149.89871	842.66669	-614.59308	90.51136	745.99945	-648.54425	121.69446	600.05463	-629.43054	229.28687	559.21210	-682.04688	121.33171	540.76160	-598.40649	168.74812	543.01605	-720.48199	124.83556	473.75247	-686.38770	146.36871	214.83846	-615.92786	78.50336	168.89096	-570.95667	52.73365	162.88326	-491.70898	92.79439	160.85939	-531.13428	144.82965	164.51768	-631.72510	219.48317	220.14836	-591.16241	191.05295	167.59497	-716.37964	215.04196	170.20528	-559.84998	429.38284	885.37244	-512.70020	368.37582	839.69257	-602.20233	430.15848	749.50623	-646.40100	410.58411	624.80273	-606.31262	309.50995	572.91547	-655.57721	409.40521	562.62427	-600.12598	368.32278	537.19672	-705.24182	412.71533	509.98608	-677.89630	413.06451	212.33568	-585.26306	467.12198	166.39008	-547.06219	479.25345	160.71709	-487.66199	429.13974	168.50098	-524.19928	386.86676	177.18471	-642.11255	324.80902	206.53247	-593.39105	346.24463	168.05896	-731.85321	342.44321	164.40062	-443.69586	448.17435	148.00801	-450.01996	75.92357	143.92831	-806.17029	82.59678	142.68579	-799.73901	456.85208	146.24649	
6	0.100	-669.74280	263.14441	1840.62280	-652.50592	56.36183	1531.94080	-646.02173	452.92215	1509.26685	-553.46014	258.54694	1399.16870	-539.92059	143.25223	1058.67749	-532.40265	382.27707	1062.91272	-732.15656	244.88756	1041.34888	-570.11237	91.73373	892.29181	-522.10571	150.88139	843.79883	-614.49457	90.69218	746.14679	-648.43073	121.61380	600.13751	-629.39941	229.29271	559.22113	-681.91382	121.26643	540.85199	-598.22925	168.51663	543.02893	-720.23444	124.81163	473.79440	-686.38232	146.36255	214.81810	-615.92920	78.50093	168.91447	-570.95978	52.73409	162.86879	-491.70706	92.79138	160.86238	-531.15729	144.81985	164.52415	-631.73962	219.47974	220.13040	-591.16534	191.04802	167.60551	-716.38068	215.03696	170.19490	-560.04193	429.33813	885.28455	-512.80859	368.37592	839.72363	-602.28754	430.21603	749.57886	-646.42065	410.55966	624.78375	-606.33978	309.50317	572.89740	-655.57416	409.39081	562.62433	-600.13220	368.33746	537.22101	-705.25330	412.69351	509.97247	-677.91766	413.03757	212.31207	-585.27844	467.10904	166.39894	-547.06018	479.25247	160.72021	-487.64966	429.14050	168.52039	-524.22223	386.86298	177.21078	-642.12598	324.83627	206.48491	-593.36145	346.24982	168.06641	-731.84253	342.43704	164.39027	-443.69565	448.17313	148.02130	-450.01401	75.94015	143.93478	-806.16919	82.62375	142.65921	-799.74304	456.83679	146.23019	
7	0.120	-670.27820	263.22556	1840.62842	-652.86841	56.37925	1531.98572	-646.32050	452.89520	1509.24768	-553.63824	258.54401	1399.21826	-540.05688	143.19312	1058.75916	-532.64868	382.30762	1062.99438	-732.28271	244.88943	1041.29688	-570.26141	91.95673	892.37360	-521.15607	151.60474	844.63098	-614.38599	90.84859	746.30908	-648.31775	121.54501	600.22699	-629.33270	229.29968	559.24176	-681.76917	121.20645	540.95105	-598.02734	168.27254	543.03424	-719.96997	124.81192	473.84998	-686.37122	146.34474	214.80479	-615.93298	78.48976	168.94739	-570.96948	52.73626	162.84604	-491.71207	92.79426	160.86314	-531.19159	144.81552	164.52026	-631.76538	219.47836	220.13069	-591.16895	191.03085	167.63400	-716.38849	215.03587	170.17084	-560.27271	429.27597	885.16125	-512.91730	368.36417	839.74475	-602.36462	430.27432	749.64386	-646.44708	410.54120	624.77716	-606.36066	309.49362	572.87732	-655.57642	409.37573	562.63367	-600.13611	368.35098	537.24188	-705.26965	412.66959	509.96255	-677.92474	413.01419	212.29420	-585.28809	467.09726	166.40189	-547.05804	479.24963	160.72504	-487.64212	429.13400	168.53616	-524.25110	386.87009	177.22736	-642.14984	324.88046	206.41939	-593.32379	346.26425	168.07858	-731.83716	342.43387	164.37878	-443.69641	448.17789	148.03175	-450.01031	75.95380	143.93591	-806.19409	82.65758	142.61168	-799.75348	456.81741	146.24838	
